<svg xmlns="http://www.w3.org/2000/svg" width="960" height="560">
<rect width="100%" height="100%" fill="white"/>
<text x="480.0" y="28" text-anchor="middle" font-family="sans-serif" font-size="20">end_to_end dc: median wall time (s)</text>
<line x1="85" y1="55" x2="85" y2="490" stroke="#333"/>
<line x1="85" y1="490" x2="935" y2="490" stroke="#333"/>
<line x1="85" y1="490.0" x2="935" y2="490.0" stroke="#ddd"/>
<text x="77" y="494.0" text-anchor="end" font-family="sans-serif" font-size="11">0</text>
<line x1="85" y1="403.0" x2="935" y2="403.0" stroke="#ddd"/>
<text x="77" y="407.0" text-anchor="end" font-family="sans-serif" font-size="11">52.5</text>
<line x1="85" y1="316.0" x2="935" y2="316.0" stroke="#ddd"/>
<text x="77" y="320.0" text-anchor="end" font-family="sans-serif" font-size="11">105</text>
<line x1="85" y1="229.0" x2="935" y2="229.0" stroke="#ddd"/>
<text x="77" y="233.0" text-anchor="end" font-family="sans-serif" font-size="11">158</text>
<line x1="85" y1="142.0" x2="935" y2="142.0" stroke="#ddd"/>
<text x="77" y="146.0" text-anchor="end" font-family="sans-serif" font-size="11">210</text>
<line x1="85" y1="55.0" x2="935" y2="55.0" stroke="#ddd"/>
<text x="77" y="59.0" text-anchor="end" font-family="sans-serif" font-size="11">263</text>
<text x="85.0" y="510" text-anchor="middle" font-family="sans-serif" font-size="11">1</text>
<text x="100.3" y="510" text-anchor="middle" font-family="sans-serif" font-size="11">10</text>
<text x="168.5" y="510" text-anchor="middle" font-family="sans-serif" font-size="11">50</text>
<text x="253.6" y="510" text-anchor="middle" font-family="sans-serif" font-size="11">100</text>
<text x="424.0" y="510" text-anchor="middle" font-family="sans-serif" font-size="11">200</text>
<text x="935.0" y="510" text-anchor="middle" font-family="sans-serif" font-size="11">500</text>
<polyline points="85.0,489.0 100.3,481.8 168.5,446.1 253.6,398.6 424.0,313.1 935.0,55.0" fill="none" stroke="#c0392b" stroke-width="2"/>
<circle cx="85.0" cy="489.0" r="3" fill="#c0392b"/>
<circle cx="100.3" cy="481.8" r="3" fill="#c0392b"/>
<circle cx="168.5" cy="446.1" r="3" fill="#c0392b"/>
<circle cx="253.6" cy="398.6" r="3" fill="#c0392b"/>
<circle cx="424.0" cy="313.1" r="3" fill="#c0392b"/>
<circle cx="935.0" cy="55.0" r="3" fill="#c0392b"/>
<polyline points="85.0,488.9 100.3,485.0 168.5,469.7 253.6,448.6 424.0,409.6 935.0,279.8" fill="none" stroke="#e67e22" stroke-width="2"/>
<circle cx="85.0" cy="488.9" r="3" fill="#e67e22"/>
<circle cx="100.3" cy="485.0" r="3" fill="#e67e22"/>
<circle cx="168.5" cy="469.7" r="3" fill="#e67e22"/>
<circle cx="253.6" cy="448.6" r="3" fill="#e67e22"/>
<circle cx="424.0" cy="409.6" r="3" fill="#e67e22"/>
<circle cx="935.0" cy="279.8" r="3" fill="#e67e22"/>
<polyline points="85.0,489.8 100.3,488.5 168.5,482.3 253.6,474.7 424.0,459.5 935.0,413.3" fill="none" stroke="#2980b9" stroke-width="2"/>
<circle cx="85.0" cy="489.8" r="3" fill="#2980b9"/>
<circle cx="100.3" cy="488.5" r="3" fill="#2980b9"/>
<circle cx="168.5" cy="482.3" r="3" fill="#2980b9"/>
<circle cx="253.6" cy="474.7" r="3" fill="#2980b9"/>
<circle cx="424.0" cy="459.5" r="3" fill="#2980b9"/>
<circle cx="935.0" cy="413.3" r="3" fill="#2980b9"/>
<polyline points="85.0,489.8 100.3,488.5 168.5,482.4 253.6,474.8 424.0,459.5 935.0,413.2" fill="none" stroke="#16a085" stroke-width="2"/>
<circle cx="85.0" cy="489.8" r="3" fill="#16a085"/>
<circle cx="100.3" cy="488.5" r="3" fill="#16a085"/>
<circle cx="168.5" cy="482.4" r="3" fill="#16a085"/>
<circle cx="253.6" cy="474.8" r="3" fill="#16a085"/>
<circle cx="424.0" cy="459.5" r="3" fill="#16a085"/>
<circle cx="935.0" cy="413.2" r="3" fill="#16a085"/>
<polyline points="85.0,489.8 100.3,488.2 168.5,480.8 253.6,471.6 424.0,453.3 935.0,396.7" fill="none" stroke="#8e44ad" stroke-width="2"/>
<circle cx="85.0" cy="489.8" r="3" fill="#8e44ad"/>
<circle cx="100.3" cy="488.2" r="3" fill="#8e44ad"/>
<circle cx="168.5" cy="480.8" r="3" fill="#8e44ad"/>
<circle cx="253.6" cy="471.6" r="3" fill="#8e44ad"/>
<circle cx="424.0" cy="453.3" r="3" fill="#8e44ad"/>
<circle cx="935.0" cy="396.7" r="3" fill="#8e44ad"/>
<line x1="660" y1="55" x2="680" y2="55" stroke="#c0392b" stroke-width="3"/>
<text x="686" y="59" font-family="sans-serif" font-size="11">hspice_independent</text>
<line x1="660" y1="71" x2="680" y2="71" stroke="#e67e22" stroke-width="3"/>
<text x="686" y="75" font-family="sans-serif" font-size="11">hspice_alter</text>
<line x1="660" y1="87" x2="680" y2="87" stroke="#2980b9" stroke-width="3"/>
<text x="686" y="91" font-family="sans-serif" font-size="11">ngspice_official_independent</text>
<line x1="660" y1="103" x2="680" y2="103" stroke="#16a085" stroke-width="3"/>
<text x="686" y="107" font-family="sans-serif" font-size="11">ngspice_optimized_independent</text>
<line x1="660" y1="119" x2="680" y2="119" stroke="#8e44ad" stroke-width="3"/>
<text x="686" y="123" font-family="sans-serif" font-size="11">ngspice_optimized_reuse</text>
<text x="480.0" y="542" text-anchor="middle" font-family="sans-serif" font-size="13">parameter points</text>
</svg>